<svg width="180" height="180" viewBox="0 0 180 180" fill="none" xmlns="http://www.w3.org/2000/svg">
<path d="M180 90C180 40.2944 139.706 0 90 0C40.2944 0 0 40.2944 0 90C0 139.706 40.2944 180 90 180C139.706 180 180 139.706 180 90Z" fill="white" fill-opacity="0.1"/>
<path d="M50.625 118.125C58.3915 118.125 64.6875 111.829 64.6875 104.062C64.6875 96.296 58.3915 90 50.625 90C42.8585 90 36.5625 96.296 36.5625 104.062C36.5625 111.829 42.8585 118.125 50.625 118.125Z" fill="#F0BD70"/>
<path d="M50.625 115.312H98.4375V185.259C98.4375 185.259 88.1916 191.25 74.5312 191.25C60.8709 191.25 50.625 181.471 50.625 181.471V115.312Z" fill="#F0BD70"/>
<path d="M98.4374 151.504C98.4374 167.406 95.9568 165.898 79.8271 165.898C63.6974 165.898 56.2555 153.008 56.2555 137.107C56.2555 121.205 55.6424 106.875 68.6586 106.875C105.469 108.281 98.4374 135.602 98.4374 151.504Z" fill="#E9B05B"/>
<path d="M129.054 101.531C129.054 126.624 139.421 157.48 94.2187 157.48C49.0162 157.48 49.0162 126.624 49.0162 101.531C42.1875 71.7187 43.5937 36.5625 90 36.5625C136.406 36.5625 129.054 76.4353 129.054 101.531V101.531Z" fill="#FFCB7E"/>
<path d="M106.875 115.312H104.062C102.509 115.312 101.25 116.572 101.25 118.125C101.25 119.678 102.509 120.938 104.062 120.938H106.875C108.428 120.938 109.688 119.678 109.688 118.125C109.688 116.572 108.428 115.312 106.875 115.312Z" fill="#F0BD70"/>
<path d="M106.875 168.75H45C31.0203 168.75 19.6875 180.083 19.6875 194.062V208.125C19.6875 222.105 31.0203 233.438 45 233.438H106.875C120.855 233.438 132.188 222.105 132.188 208.125V194.062C132.188 180.083 120.855 168.75 106.875 168.75Z" fill="#E05A33"/>
<path fill-rule="evenodd" clip-rule="evenodd" d="M129.285 91.3584C131.619 90.041 133.407 87.9331 134.324 85.4147C135.242 82.8962 135.231 80.1327 134.291 77.6221C136.859 76.3844 138.861 74.2183 139.892 71.5615C140.924 68.9046 140.909 65.9552 139.851 63.3089C138.792 60.6627 136.768 58.517 134.188 57.3054C131.608 56.0938 128.665 55.9065 125.952 56.7815C129.937 67.1146 129.645 79.8946 129.285 91.3584Z" fill="#47280B"/>
<path fill-rule="evenodd" clip-rule="evenodd" d="M102.085 64.0125C99.5223 66.2656 96.225 67.5057 92.8125 67.5C89.7002 67.505 86.6749 66.4729 84.2147 64.5666C82.3892 66.3915 80.2215 67.8384 77.836 68.8244C75.4504 69.8104 72.8938 70.3161 70.3125 70.3125C68.3636 70.3138 66.4252 70.0257 64.5609 69.4575C63.8279 70.2598 62.9829 70.9523 62.0522 71.5135C63.1594 72.8309 63.9496 74.3848 64.362 76.0555C64.7744 77.7263 64.798 79.4694 64.4309 81.1507C64.0639 82.832 63.3161 84.4067 62.245 85.7536C61.1738 87.1006 59.808 88.1838 58.2525 88.92C58.7167 89.5559 58.9937 90.309 59.0522 91.0942C59.1106 91.8793 58.9482 92.6652 58.5833 93.3628C58.2184 94.0604 57.6655 94.6421 56.9873 95.0418C56.309 95.4416 55.5324 95.6436 54.7453 95.625C53.3666 98.024 51.1521 99.8307 48.5252 100.7C45.8983 101.569 43.0433 101.439 40.5058 100.336C37.9683 99.233 35.9264 97.2333 34.7704 94.7194C33.6144 92.2056 33.4253 89.3539 34.2394 86.7094C33.1913 85.666 32.36 84.4255 31.7934 83.0595C31.2267 81.6935 30.9358 80.2289 30.9375 78.75C30.9375 75.6394 32.2003 72.8241 34.2394 70.7906C33.6962 69.0139 33.6014 67.1304 33.9636 65.3081C34.3258 63.4859 35.1336 61.7817 36.315 60.3478C34.8519 57.7697 33.9896 54.8945 33.7924 51.9367C33.5952 48.9789 34.0682 46.0148 35.1761 43.2652C36.2841 40.5157 37.9983 38.0517 40.1912 36.0569C42.384 34.0622 44.9988 32.5882 47.8406 31.7447C47.6945 29.7235 48.097 27.7003 49.0056 25.8889C49.9143 24.0775 51.2954 22.5452 53.003 21.4539C54.7105 20.3625 56.6812 19.7527 58.7067 19.6888C60.7322 19.625 62.7374 20.1094 64.5103 21.091C66.2382 18.0977 68.7238 15.6122 71.7173 13.8847C74.7107 12.1572 78.1063 11.2485 81.5625 11.25C85.4241 11.25 89.0269 12.361 92.0672 14.2847C94.1556 12.035 96.7767 10.3472 99.6889 9.3769C102.601 8.40658 105.711 8.18494 108.731 8.73242C111.751 9.2799 114.585 10.5789 116.972 12.5096C119.358 14.4404 121.22 16.9408 122.386 19.7803C123.874 19.9732 125.308 20.4617 126.604 21.2171C127.901 21.9726 129.033 22.9797 129.934 24.1791C130.835 25.3786 131.487 26.7462 131.852 28.2015C132.217 29.6568 132.287 31.1704 132.058 32.6531C137.275 36.5175 140.625 42.5025 140.625 49.2188C140.625 60.8681 130.551 70.3125 118.125 70.3125C111.845 70.3125 106.166 67.8994 102.085 64.0125V64.0125Z" fill="#47280B"/>
<path d="M81.3628 129.375C81.3628 128.629 81.6591 127.914 82.1866 127.386C82.714 126.859 83.4294 126.562 84.1753 126.562H109.89C110.636 126.562 111.351 126.859 111.879 127.386C112.406 127.914 112.702 128.629 112.702 129.375C112.702 133.105 111.221 136.681 108.584 139.319C105.946 141.956 102.37 143.437 98.64 143.438H95.4253C91.6957 143.438 88.1188 141.956 85.4816 139.319C82.8444 136.681 81.3628 133.105 81.3628 129.375V129.375Z" fill="#66253C"/>
<path fill-rule="evenodd" clip-rule="evenodd" d="M103.373 142.622C101.854 143.164 100.253 143.44 98.64 143.437H95.4253C91.7931 143.437 88.3017 142.032 85.6825 139.516C83.0633 136.999 81.5193 133.567 81.374 129.937C83.5228 129.133 86.7121 129.226 89.8593 129.319C90.8606 129.347 91.8562 129.375 92.8125 129.375C99.0281 129.375 104.062 133.782 104.062 139.219C104.062 140.414 103.818 141.562 103.373 142.622V142.622Z" fill="#B03E67"/>
<path d="M84.375 126.562H112.5V129.375C112.5 130.121 112.204 130.836 111.676 131.364C111.149 131.891 110.433 132.188 109.688 132.188H87.1875C86.4416 132.188 85.7262 131.891 85.1988 131.364C84.6713 130.836 84.375 130.121 84.375 129.375V126.562Z" fill="white"/>
<path d="M92.8125 105.469C92.8125 103.139 90.9237 101.25 88.5938 101.25C86.2638 101.25 84.375 103.139 84.375 105.469V108.281C84.375 110.611 86.2638 112.5 88.5938 112.5C90.9237 112.5 92.8125 110.611 92.8125 108.281V105.469Z" fill="#1B0B47"/>
<path d="M120.938 105.469C120.938 103.139 119.049 101.25 116.719 101.25C114.389 101.25 112.5 103.139 112.5 105.469V108.281C112.5 110.611 114.389 112.5 116.719 112.5C119.049 112.5 120.938 110.611 120.938 108.281V105.469Z" fill="#1B0B47"/>
<path d="M77.3438 109.688H71.7188C69.3888 109.688 67.5 111.576 67.5 113.906C67.5 116.236 69.3888 118.125 71.7188 118.125H77.3438C79.6737 118.125 81.5625 116.236 81.5625 113.906C81.5625 111.576 79.6737 109.688 77.3438 109.688Z" fill="#FF859B"/>
<path d="M127.969 109.688H125.156C122.826 109.688 120.938 111.576 120.938 113.906C120.938 116.236 122.826 118.125 125.156 118.125H127.969C130.299 118.125 132.188 116.236 132.188 113.906C132.188 111.576 130.299 109.688 127.969 109.688Z" fill="#FF859B"/>
</svg>
