<svg width="200" height="200" viewBox="0 0 200 200" fill="none" xmlns="http://www.w3.org/2000/svg">
<path d="M196.417 114.58C196.417 111.453 195.654 108.08 193.907 104.673C194.334 103.257 194.64 101.827 194.874 100.393C195.64 99.9367 196.39 99.3767 197.06 98.6333C201.527 93.6567 199.927 83.9733 198.577 78.6433C198.438 78.1118 198.227 77.6016 197.95 77.1267C198.36 75.62 198.577 74.0467 198.577 72.4033C198.58 32.4767 154.361 0 100.001 0C45.6418 0 1.42224 32.4767 1.42224 72.4033C1.42224 74.0433 1.64224 75.62 2.0489 77.1267C1.775 77.5989 1.56537 78.1056 1.42558 78.6333C0.0755883 83.96 -1.5244 93.6267 2.92223 98.5967C3.36222 101.26 4.10222 103.937 5.22887 106.587C4.17084 109.119 3.61499 111.832 3.59222 114.577C3.59222 117.123 3.83222 119.593 4.26888 122.007C2.58756 125.937 1.71467 130.165 1.70224 134.44C1.70557 164.35 18.7587 200 100.001 200C181.244 200 198.297 164.35 198.297 134.443C198.285 130.17 197.413 125.943 195.734 122.013C196.174 119.6 196.417 117.127 196.417 114.58ZM191.914 72.4033C191.914 89.2333 154.977 100.54 100.001 100.54C45.0251 100.54 8.08884 89.23 8.08884 72.4033C8.08884 36.0367 49.3218 6.45333 100.001 6.45333C150.681 6.45333 191.914 36.0367 191.914 72.4033ZM100.001 193.547C39.1985 193.547 8.36884 173.663 8.36884 134.443C8.36884 134.083 8.37551 133.72 8.39217 133.36C20.7787 158.15 51.5251 170.7 100.005 170.7C148.481 170.7 179.22 158.153 191.61 133.37C191.624 133.727 191.63 134.087 191.63 134.443C191.63 173.667 160.804 193.547 100.001 193.547ZM191.504 112.687L191.467 112.617L191.304 113.22C183.29 133.027 158.127 146.737 109.045 148.22L92.8247 164.123C92.3447 164.113 91.8414 164.113 91.3647 164.1L73.5082 147.07C35.9186 143.17 15.7954 130.6 8.73884 113.367L8.5355 112.62L8.4755 112.747C8.40217 112.557 8.30884 112.377 8.23884 112.187C13.5255 120.467 22.6754 128.253 37.0186 134.36C48.2718 139.153 58.2517 141.02 66.9083 140.773L53.0817 127.587C48.7207 126.466 44.4525 125.01 40.3152 123.233C35.3943 121.165 30.6847 118.627 26.252 115.653C27.3387 116.04 28.4753 116.303 29.7186 116.303C32.3719 116.303 34.9386 115.4 37.2019 114.6C37.8885 114.36 38.8685 114.013 39.6485 113.793C39.9952 114.403 40.3819 115.157 40.6752 115.737C42.3352 118.99 44.6018 123.437 49.3718 124.81C50.2351 125.053 51.1384 125.18 52.0617 125.18C55.5384 125.18 58.535 123.443 61.1783 121.913C61.805 121.547 62.6383 121.067 63.3216 120.723C63.765 121.267 64.265 121.95 64.6483 122.473C66.7849 125.373 69.7116 129.347 74.5415 129.977C74.9582 130.033 75.3682 130.057 75.7815 130.057C79.9081 130.057 83.1714 127.473 85.7948 125.393C86.3481 124.953 87.0714 124.377 87.6814 123.943C88.1981 124.43 88.7947 125.043 89.2547 125.517C91.888 128.227 95.168 131.607 100.005 131.607C104.841 131.607 108.118 128.23 110.755 125.517C111.215 125.043 111.808 124.43 112.328 123.943C112.941 124.377 113.661 124.953 114.214 125.39C116.834 127.47 120.101 130.057 124.228 130.057C124.638 130.057 125.054 130.03 125.461 129.98C126.564 129.834 127.635 129.506 128.631 129.01L120.744 136.747C129.318 138.743 139.721 138.833 152.097 136.13C176.621 130.777 189.12 118.81 193.514 105.823C193.059 108.169 192.387 110.467 191.504 112.687ZM12.1355 102.047L12.5821 102.05C13.3488 102.05 14.1488 102.02 14.9554 101.997C15.6221 101.97 16.2921 101.943 16.9488 101.943C17.2854 101.943 17.5588 101.953 17.7821 101.963C17.9821 102.633 18.1887 103.49 18.3454 104.143C18.9454 106.62 19.7254 109.707 21.582 112.193C17.6587 108.97 14.5221 105.563 12.1355 102.047ZM130.811 127.583C132.664 126.09 134.104 124.17 135.361 122.467C135.751 121.943 136.254 121.26 136.694 120.717C137.374 121.063 138.201 121.54 138.831 121.907C141.471 123.44 144.461 125.173 147.941 125.173C148.861 125.173 149.767 125.047 150.631 124.803C155.401 123.43 157.671 118.98 159.327 115.727C159.624 115.147 160.007 114.397 160.354 113.79C161.134 114.007 162.117 114.357 162.801 114.597C165.067 115.393 167.631 116.3 170.287 116.3C171.024 116.3 171.721 116.197 172.407 116.06C166.127 120.09 158.121 123.403 148.067 125.597C142.4 126.858 136.617 127.524 130.811 127.583ZM179.44 110.6C180.584 108.47 181.174 106.123 181.65 104.157C181.807 103.507 182.014 102.647 182.21 101.98C182.43 101.967 182.7 101.96 183.027 101.96C183.687 101.96 184.364 101.987 185.037 102.007C185.48 102.023 185.907 102.027 186.344 102.04C184.454 105.202 182.131 108.084 179.44 110.6ZM192.25 94.3233C191.287 95.3933 189.484 95.6133 187.434 95.6133C186.02 95.6133 184.484 95.51 183.034 95.51C181.064 95.51 179.234 95.7 178.02 96.5867C174.937 98.8433 175.711 107.523 171.981 109.483C171.484 109.74 170.917 109.85 170.291 109.85C167.154 109.85 162.641 107.127 159.317 107.123C158.77 107.112 158.226 107.205 157.714 107.397C154.094 108.817 152.824 117.46 148.841 118.603C148.549 118.686 148.247 118.726 147.944 118.723C144.438 118.723 139.628 113.85 135.961 113.85C135.711 113.85 135.468 113.873 135.224 113.92C131.371 114.7 128.701 123.037 124.624 123.573C124.494 123.587 124.358 123.597 124.228 123.597C120.451 123.597 115.954 116.983 112.048 116.983L111.838 116.99C107.878 117.24 104.098 125.147 100.008 125.147C95.9146 125.147 92.1413 117.24 88.1814 116.99C88.1103 116.986 88.0392 116.984 87.9681 116.983C84.0614 116.983 79.5615 123.597 75.7882 123.597C75.6556 123.597 75.5231 123.59 75.3915 123.573C71.3149 123.037 68.6549 114.7 64.7916 113.92C64.5492 113.871 64.3023 113.848 64.055 113.85C60.3883 113.85 55.575 118.723 52.0651 118.723C51.762 118.726 51.4601 118.686 51.1684 118.603C47.1818 117.457 45.9118 108.81 42.2885 107.397C41.776 107.205 41.2321 107.113 40.6852 107.123C37.3652 107.123 32.8586 109.847 29.722 109.847C29.0953 109.847 28.522 109.737 28.022 109.477C24.2954 107.51 25.0587 98.83 21.9854 96.58C20.7621 95.6833 18.9254 95.4967 16.9521 95.4967C15.5054 95.4967 13.9855 95.6 12.5821 95.6C10.5222 95.6 8.71217 95.3833 7.74885 94.3033C6.22886 92.61 6.33219 88.6733 6.75219 85.39C20.992 101.07 61.555 106.99 100.005 106.99C138.458 106.99 179.017 101.07 193.254 85.39C193.674 88.68 193.774 92.6233 192.25 94.3233Z" fill="#D9D9D9"/>
</svg>
