<svg width="30" height="30" viewBox="0 0 30 30" fill="none" xmlns="http://www.w3.org/2000/svg">
<path d="M22.5 0H7.5C5.85 0 4.5 1.35 4.5 3V6C4.5 7.65 5.85 9 7.5 9H22.5C24.15 9 25.5 7.65 25.5 6V3C25.5 1.35 24.15 0 22.5 0ZM22.5 6H7.5V3H22.5V6ZM27 30H3C1.35 30 0 28.65 0 27V25.5H30V27C30 28.65 28.65 30 27 30ZM24.795 12.285C24.315 11.205 23.235 10.5 22.05 10.5H7.95C6.765 10.5 5.685 11.205 5.205 12.285L0 24H30L24.795 12.285ZM11.25 21H9.75C9.33 21 9 20.67 9 20.25C9 19.83 9.33 19.5 9.75 19.5H11.25C11.67 19.5 12 19.83 12 20.25C12 20.67 11.67 21 11.25 21ZM11.25 18H9.75C9.33 18 9 17.67 9 17.25C9 16.83 9.33 16.5 9.75 16.5H11.25C11.67 16.5 12 16.83 12 17.25C12 17.67 11.67 18 11.25 18ZM11.25 15H9.75C9.33 15 9 14.67 9 14.25C9 13.83 9.33 13.5 9.75 13.5H11.25C11.67 13.5 12 13.83 12 14.25C12 14.67 11.67 15 11.25 15ZM15.75 21H14.25C13.83 21 13.5 20.67 13.5 20.25C13.5 19.83 13.83 19.5 14.25 19.5H15.75C16.17 19.5 16.5 19.83 16.5 20.25C16.5 20.67 16.17 21 15.75 21ZM15.75 18H14.25C13.83 18 13.5 17.67 13.5 17.25C13.5 16.83 13.83 16.5 14.25 16.5H15.75C16.17 16.5 16.5 16.83 16.5 17.25C16.5 17.67 16.17 18 15.75 18ZM15.75 15H14.25C13.83 15 13.5 14.67 13.5 14.25C13.5 13.83 13.83 13.5 14.25 13.5H15.75C16.17 13.5 16.5 13.83 16.5 14.25C16.5 14.67 16.17 15 15.75 15ZM20.25 21H18.75C18.33 21 18 20.67 18 20.25C18 19.83 18.33 19.5 18.75 19.5H20.25C20.67 19.5 21 19.83 21 20.25C21 20.67 20.67 21 20.25 21ZM20.25 18H18.75C18.33 18 18 17.67 18 17.25C18 16.83 18.33 16.5 18.75 16.5H20.25C20.67 16.5 21 16.83 21 17.25C21 17.67 20.67 18 20.25 18ZM20.25 15H18.75C18.33 15 18 14.67 18 14.25C18 13.83 18.33 13.5 18.75 13.5H20.25C20.67 13.5 21 13.83 21 14.25C21 14.67 20.67 15 20.25 15Z" fill="#D9D9D9"/>
</svg>
