<svg width="213" height="148" viewBox="0 0 213 148" fill="none" xmlns="http://www.w3.org/2000/svg">
<g filter="url(#filter0_f_312_790)">
<ellipse cx="104.754" cy="113.194" rx="75.8386" ry="12.9289" fill="#1F88F8" fill-opacity="0.35"/>
</g>
<path d="M105.587 139C149.022 139 184.233 107.884 184.233 69.5C184.233 31.1162 149.022 0 105.587 0C62.1519 0 26.9409 31.1162 26.9409 69.5C26.9409 107.884 62.1519 139 105.587 139Z" fill="url(#paint0_linear_312_790)"/>
<g filter="url(#filter1_d_312_790)">
<path d="M171.466 47.0342L104.072 88.5973L36.6777 47.0342L98.3717 8.97091C100.045 7.94041 102.035 7.38794 104.075 7.38794C106.114 7.38794 108.104 7.94041 109.777 8.97091L122.084 16.5737L125.306 18.551L157.75 38.5713L161.168 40.6919L171.466 47.0342Z" fill="url(#paint1_linear_312_790)"/>
</g>
<path d="M93.1135 81.8398L36.6777 117.303V47.0342L93.1135 81.8398Z" fill="url(#paint2_linear_312_790)"/>
<g filter="url(#filter2_f_312_790)">
<ellipse cx="136.999" cy="45.647" rx="25.0805" ry="7.12409" fill="#FF4C77" fill-opacity="0.3"/>
</g>
<path d="M115.036 81.8398L171.471 117.303V47.0342L115.036 81.8398Z" fill="url(#paint3_linear_312_790)"/>
<path d="M36.6777 117.303L98.2989 78.5871C99.9854 77.5259 102.004 76.9556 104.075 76.9556C106.145 76.9556 108.164 77.5259 109.85 78.5871L171.466 117.303H36.6777Z" fill="url(#paint4_linear_312_790)"/>
<path d="M142.581 54.9956C145.325 54.9956 147.241 53.1229 147.241 50.5098C147.241 47.8966 145.325 46.0239 142.581 46.0239C139.881 46.0239 137.921 47.8966 137.921 50.5098C137.921 53.1229 139.881 54.9956 142.581 54.9956ZM146.327 44.4125C146.327 41.3638 147.808 40.1879 150.072 39.012C153.121 37.4442 155.386 34.8746 155.386 31.2162C155.386 25.7722 150.203 21.9397 143.278 21.9397C135.962 21.9397 130.735 26.2513 130.213 32.305L138.618 33.8294C138.923 31.042 140.578 28.9951 142.93 28.9951C144.803 28.9951 146.24 30.3017 146.24 32.0873C146.24 33.8729 144.628 34.8746 143.235 35.7892C140.186 37.7926 138.88 40.0573 138.88 44.4125H146.327Z" fill="white"/>
<g filter="url(#filter3_d_312_790)">
<path d="M43.7984 34.3013C33.4665 38.5723 22.364 41.2014 10.9998 42.0681C12.5353 45.2225 23.4458 61.0121 55.8335 74.0224C56.709 74.1414 76.9337 65.827 88.0327 60.1254C87.6556 60.6015 53.5572 49.5136 43.7984 34.3013Z" fill="url(#paint5_linear_312_790)"/>
</g>
<path d="M137.774 51.5819C150.193 51.5819 160.261 42.6849 160.261 31.7099C160.261 20.7349 150.193 11.8379 137.774 11.8379C125.355 11.8379 115.287 20.7349 115.287 31.7099C115.287 42.6849 125.355 51.5819 137.774 51.5819Z" fill="url(#paint6_linear_312_790)"/>
<path d="M137.484 60.8861C140.982 60.8861 143.425 58.4987 143.425 55.1674C143.425 51.8362 140.982 49.4487 137.484 49.4487C134.042 49.4487 131.543 51.8362 131.543 55.1674C131.543 58.4987 134.042 60.8861 137.484 60.8861ZM142.259 47.3945C142.259 43.508 144.146 42.0089 147.034 40.5098C150.92 38.5111 153.807 35.2353 153.807 30.5716C153.807 23.6314 147.2 18.7456 138.372 18.7456C129.045 18.7456 122.382 24.2422 121.716 31.9596L132.431 33.9028C132.82 30.3495 134.93 27.74 137.928 27.74C140.315 27.74 142.148 29.4056 142.148 31.682C142.148 33.9583 140.093 35.2353 138.317 36.4013C134.43 38.9553 132.765 41.8423 132.765 47.3945H142.259Z" fill="white"/>
<path d="M44.5471 42.1203C44.1013 41.847 43.563 41.7693 43.0773 41.9081L24.8179 47.1286C24.2155 47.3008 24.0343 48.0175 24.4749 48.4848C24.8132 48.8436 25.3324 48.9864 25.7922 48.8473L44.4517 43.1993C44.9502 43.0484 45.0073 42.4024 44.5471 42.1203Z" fill="#C9DFFF"/>
<path d="M44.2506 48.4884C43.8106 48.1232 43.2143 47.996 42.6831 48.154L29.9942 51.9278C29.481 52.0804 29.3278 52.6921 29.7021 53.094C29.9938 53.4071 30.4443 53.5329 30.8436 53.4127L44.0888 49.4273C44.5094 49.3008 44.5995 48.7779 44.2506 48.4884Z" fill="#C9DFFF"/>
<path d="M50.9617 51.6405C50.5055 51.3176 49.9228 51.2227 49.409 51.3878L34.8295 56.0704C34.3008 56.2403 34.1726 56.8858 34.5899 57.2767C34.8933 57.5608 35.3321 57.6627 35.7159 57.5383L50.8464 52.6316C51.2915 52.4873 51.3575 51.9205 50.9617 51.6405Z" fill="#C9DFFF"/>
<path d="M56.0206 61.2052C55.5874 60.7821 54.9432 60.6294 54.3851 60.8176L45.9825 63.6512C45.5119 63.8099 45.3653 64.3621 45.6905 64.7513C45.9856 65.1045 46.4803 65.2467 46.9066 65.1008L55.8523 62.039C56.2122 61.9158 56.3004 61.4785 56.0206 61.2052Z" fill="#C9DFFF"/>
<g filter="url(#filter4_d_312_790)">
<path d="M163.23 56.3208C175.758 61.4996 189.221 64.6876 203 65.7386C201.138 69.5634 187.909 88.7093 148.637 104.485C147.575 104.629 123.051 94.5476 109.593 87.634C110.051 88.2114 151.397 74.7667 163.23 56.3208Z" fill="url(#paint7_linear_312_790)"/>
</g>
<path d="M162.323 65.8021C162.863 65.4706 163.516 65.3764 164.105 65.5448L186.246 71.8749C186.976 72.0837 187.196 72.9528 186.662 73.5194C186.251 73.9544 185.622 74.1276 185.064 73.9589L162.439 67.1104C161.834 66.9275 161.765 66.1442 162.323 65.8021Z" fill="#C9DFFF"/>
<path d="M156.165 70.9642C156.699 70.5214 157.422 70.3672 158.066 70.5587L173.452 75.1347C174.074 75.3198 174.26 76.0615 173.806 76.5488C173.452 76.9284 172.906 77.0809 172.422 76.9352L156.361 72.1027C155.851 71.9492 155.742 71.3152 156.165 70.9642Z" fill="#C9DFFF"/>
<path d="M149.865 75.2466C150.419 74.855 151.125 74.74 151.748 74.9401L169.427 80.6182C170.068 80.8241 170.223 81.6069 169.717 82.0808C169.349 82.4253 168.817 82.5489 168.352 82.398L150.005 76.4484C149.465 76.2733 149.385 75.5862 149.865 75.2466Z" fill="#C9DFFF"/>
<path d="M135.65 83.8245C136.175 83.3115 136.956 83.1264 137.633 83.3546L147.822 86.7905C148.392 86.9829 148.57 87.6525 148.176 88.1244C147.818 88.5527 147.218 88.7251 146.701 88.5482L135.854 84.8356C135.418 84.6862 135.311 84.156 135.65 83.8245Z" fill="#C9DFFF"/>
<path d="M142.21 79.2375C142.764 78.9306 143.417 78.8617 143.997 79.0491L167.205 86.5479C167.895 86.7708 168.017 87.6382 167.424 88.0963C167.055 88.3811 166.567 88.47 166.139 88.3306L142.279 80.5634C141.667 80.3641 141.625 79.5617 142.21 79.2375Z" fill="#C9DFFF"/>
<path d="M60.9733 53.7282C60.5167 53.475 59.9779 53.4182 59.4995 53.5728L40.3598 59.7571C39.791 59.9408 39.6899 60.6562 40.1794 61.034C40.4836 61.2689 40.886 61.3422 41.2392 61.2272L60.9164 54.8216C61.4211 54.6573 61.4555 53.9955 60.9733 53.7282Z" fill="#C9DFFF"/>
<path d="M170.328 16.359C170.328 17.5305 169.198 18.7466 167.454 18.7466C165.711 18.7466 164.581 17.5305 164.581 16.359C164.581 15.1875 165.711 13.9714 167.454 13.9714C169.198 13.9714 170.328 15.1875 170.328 16.359Z" stroke="url(#paint8_linear_312_790)" stroke-width="2.61276"/>
<path d="M53.8834 124.012C53.8834 125.184 52.7532 126.4 51.0097 126.4C49.2661 126.4 48.136 125.184 48.136 124.012C48.136 122.841 49.2661 121.624 51.0097 121.624C52.7532 121.624 53.8834 122.841 53.8834 124.012Z" stroke="url(#paint9_linear_312_790)" stroke-width="2.61276"/>
<path d="M154.802 129.817C154.802 130.988 153.672 132.204 151.929 132.204C150.185 132.204 149.055 130.988 149.055 129.817C149.055 128.645 150.185 127.429 151.929 127.429C153.672 127.429 154.802 128.645 154.802 129.817Z" stroke="url(#paint10_linear_312_790)" stroke-width="2.61276"/>
<path d="M61.5331 21.6298C62.0938 19.5772 65.0051 19.5772 65.5658 21.6298L66.0009 23.2227C66.2069 23.9769 66.8166 24.553 67.5812 24.7161L68.2984 24.8691C70.504 25.3396 70.504 28.4871 68.2984 28.9576L67.5812 29.1106C66.8166 29.2737 66.2069 29.8498 66.0009 30.604L65.5658 32.1969C65.0051 34.2495 62.0938 34.2495 61.5331 32.1969L61.098 30.604C60.892 29.8498 60.2824 29.2737 59.5178 29.1106L58.8005 28.9576C56.595 28.4871 56.595 25.3396 58.8005 24.8691L59.5178 24.7161C60.2824 24.553 60.892 23.9769 61.098 23.2227L61.5331 21.6298Z" fill="url(#paint11_linear_312_790)"/>
<path d="M181.188 113.418C181.749 111.366 184.66 111.366 185.221 113.418L185.656 115.011C185.862 115.765 186.471 116.341 187.236 116.504L187.953 116.657C190.159 117.128 190.159 120.275 187.953 120.746L187.236 120.899C186.471 121.062 185.862 121.638 185.656 122.392L185.221 123.985C184.66 126.038 181.749 126.038 181.188 123.985L180.753 122.392C180.547 121.638 179.937 121.062 179.173 120.899L178.455 120.746C176.25 120.275 176.25 117.128 178.455 116.657L179.173 116.504C179.937 116.341 180.547 115.765 180.753 115.011L181.188 113.418Z" fill="url(#paint12_linear_312_790)"/>
<path d="M27.9834 101.122C29.3952 100.922 30.5482 102.176 30.0381 103.356L28.63 106.615C28.1293 107.773 26.3956 107.993 25.4937 107.012L23.0045 104.305C22.1025 103.324 22.7004 101.869 24.086 101.673L27.9834 101.122Z" fill="url(#paint13_linear_312_790)"/>
<path d="M184.459 49.6898C184.108 48.4739 185.375 47.3814 186.742 47.7208L190.543 48.6649C191.913 49.0051 192.356 50.5279 191.34 51.4043L188.514 53.8417C187.498 54.7181 185.786 54.2897 185.435 53.0712L184.459 49.6898Z" fill="url(#paint14_linear_312_790)"/>
<defs>
<filter id="filter0_f_312_790" x="7.14204" y="78.4919" width="195.223" height="69.4039" filterUnits="userSpaceOnUse" color-interpolation-filters="sRGB">
<feFlood flood-opacity="0" result="BackgroundImageFix"/>
<feBlend mode="normal" in="SourceGraphic" in2="BackgroundImageFix" result="shape"/>
<feGaussianBlur stdDeviation="10.8865" result="effect1_foregroundBlur_312_790"/>
</filter>
<filter id="filter1_d_312_790" x="33.1941" y="7.38794" width="141.755" height="88.1766" filterUnits="userSpaceOnUse" color-interpolation-filters="sRGB">
<feFlood flood-opacity="0" result="BackgroundImageFix"/>
<feColorMatrix in="SourceAlpha" type="matrix" values="0 0 0 0 0 0 0 0 0 0 0 0 0 0 0 0 0 0 127 0" result="hardAlpha"/>
<feOffset dy="3.48368"/>
<feGaussianBlur stdDeviation="1.74184"/>
<feComposite in2="hardAlpha" operator="out"/>
<feColorMatrix type="matrix" values="0 0 0 0 0 0 0 0 0 0 0 0 0 0 0 0 0 0 0.25 0"/>
<feBlend mode="normal" in2="BackgroundImageFix" result="effect1_dropShadow_312_790"/>
<feBlend mode="normal" in="SourceGraphic" in2="effect1_dropShadow_312_790" result="shape"/>
</filter>
<filter id="filter2_f_312_790" x="90.146" y="16.75" width="93.7071" height="57.7943" filterUnits="userSpaceOnUse" color-interpolation-filters="sRGB">
<feFlood flood-opacity="0" result="BackgroundImageFix"/>
<feBlend mode="normal" in="SourceGraphic" in2="BackgroundImageFix" result="shape"/>
<feGaussianBlur stdDeviation="10.8865" result="effect1_foregroundBlur_312_790"/>
</filter>
<filter id="filter3_d_312_790" x="0.548963" y="27.3339" width="97.9348" height="60.6245" filterUnits="userSpaceOnUse" color-interpolation-filters="sRGB">
<feFlood flood-opacity="0" result="BackgroundImageFix"/>
<feColorMatrix in="SourceAlpha" type="matrix" values="0 0 0 0 0 0 0 0 0 0 0 0 0 0 0 0 0 0 127 0" result="hardAlpha"/>
<feOffset dy="3.48368"/>
<feGaussianBlur stdDeviation="5.22552"/>
<feComposite in2="hardAlpha" operator="out"/>
<feColorMatrix type="matrix" values="0 0 0 0 0.0196078 0 0 0 0 0.168627 0 0 0 0 0.396078 0 0 0 0.15 0"/>
<feBlend mode="normal" in2="BackgroundImageFix" result="effect1_dropShadow_312_790"/>
<feBlend mode="normal" in="SourceGraphic" in2="effect1_dropShadow_312_790" result="shape"/>
</filter>
<filter id="filter4_d_312_790" x="89.5074" y="54.579" width="123.018" height="77.777" filterUnits="userSpaceOnUse" color-interpolation-filters="sRGB">
<feFlood flood-opacity="0" result="BackgroundImageFix"/>
<feColorMatrix in="SourceAlpha" type="matrix" values="0 0 0 0 0 0 0 0 0 0 0 0 0 0 0 0 0 0 127 0" result="hardAlpha"/>
<feOffset dx="-5.28021" dy="13.0638"/>
<feGaussianBlur stdDeviation="7.40282"/>
<feComposite in2="hardAlpha" operator="out"/>
<feColorMatrix type="matrix" values="0 0 0 0 0.021441 0 0 0 0 0.168056 0 0 0 0 0.395833 0 0 0 0.15 0"/>
<feBlend mode="normal" in2="BackgroundImageFix" result="effect1_dropShadow_312_790"/>
<feBlend mode="normal" in="SourceGraphic" in2="effect1_dropShadow_312_790" result="shape"/>
</filter>
<linearGradient id="paint0_linear_312_790" x1="104.98" y1="-22.6309" x2="106.239" y2="221.444" gradientUnits="userSpaceOnUse">
<stop stop-color="#CAE0FF" stop-opacity="0"/>
<stop offset="1" stop-color="#BCD8FF"/>
</linearGradient>
<linearGradient id="paint1_linear_312_790" x1="104.072" y1="7.38794" x2="104.072" y2="88.5973" gradientUnits="userSpaceOnUse">
<stop stop-color="#EDF4FF"/>
<stop offset="1" stop-color="#ABCCFF"/>
</linearGradient>
<linearGradient id="paint2_linear_312_790" x1="64.8956" y1="47.0342" x2="64.8956" y2="117.303" gradientUnits="userSpaceOnUse">
<stop stop-color="#ABCCFF"/>
<stop offset="1" stop-color="#70A8FF"/>
</linearGradient>
<linearGradient id="paint3_linear_312_790" x1="143.254" y1="47.0342" x2="143.254" y2="117.303" gradientUnits="userSpaceOnUse">
<stop stop-color="#ABCCFF"/>
<stop offset="1" stop-color="#70A8FF"/>
</linearGradient>
<linearGradient id="paint4_linear_312_790" x1="104.072" y1="76.9556" x2="104.072" y2="117.303" gradientUnits="userSpaceOnUse">
<stop stop-color="#70A8FF"/>
<stop offset="1" stop-color="#5597FD"/>
</linearGradient>
<linearGradient id="paint5_linear_312_790" x1="19.36" y1="51.9796" x2="69.3049" y2="40.9436" gradientUnits="userSpaceOnUse">
<stop stop-color="#C6DDFF"/>
<stop offset="1" stop-color="white"/>
</linearGradient>
<linearGradient id="paint6_linear_312_790" x1="115.502" y1="14.5119" x2="155.081" y2="56.6116" gradientUnits="userSpaceOnUse">
<stop stop-color="#FF698D"/>
<stop offset="1" stop-color="#FF3868"/>
</linearGradient>
<linearGradient id="paint7_linear_312_790" x1="192.863" y1="77.7568" x2="132.302" y2="64.375" gradientUnits="userSpaceOnUse">
<stop stop-color="#C6DDFF"/>
<stop offset="1" stop-color="white"/>
</linearGradient>
<linearGradient id="paint8_linear_312_790" x1="162.316" y1="14.0503" x2="173.976" y2="25.4853" gradientUnits="userSpaceOnUse">
<stop stop-color="#94BFFF"/>
<stop offset="1" stop-color="#4C94FE"/>
</linearGradient>
<linearGradient id="paint9_linear_312_790" x1="45.8717" y1="121.703" x2="57.5315" y2="133.138" gradientUnits="userSpaceOnUse">
<stop stop-color="#94BFFF"/>
<stop offset="1" stop-color="#4C94FE"/>
</linearGradient>
<linearGradient id="paint10_linear_312_790" x1="146.791" y1="127.508" x2="158.45" y2="138.943" gradientUnits="userSpaceOnUse">
<stop stop-color="#94BFFF"/>
<stop offset="1" stop-color="#4C94FE"/>
</linearGradient>
<linearGradient id="paint11_linear_312_790" x1="63.5495" y1="14.2483" x2="63.5495" y2="39.5784" gradientUnits="userSpaceOnUse">
<stop stop-color="#70A8FF"/>
<stop offset="1" stop-color="#5597FD"/>
</linearGradient>
<linearGradient id="paint12_linear_312_790" x1="183.204" y1="106.037" x2="183.204" y2="131.367" gradientUnits="userSpaceOnUse">
<stop stop-color="#70A8FF"/>
<stop offset="1" stop-color="#5597FD"/>
</linearGradient>
<linearGradient id="paint13_linear_312_790" x1="31.2005" y1="100.666" x2="22.8622" y2="108.334" gradientUnits="userSpaceOnUse">
<stop stop-color="#70A8FF"/>
<stop offset="1" stop-color="#5597FD"/>
</linearGradient>
<linearGradient id="paint14_linear_312_790" x1="183.671" y1="46.9582" x2="190.965" y2="55.415" gradientUnits="userSpaceOnUse">
<stop stop-color="#70A8FF"/>
<stop offset="1" stop-color="#5597FD"/>
</linearGradient>
</defs>
</svg>
