<svg width="26" height="26" viewBox="0 0 26 26" fill="none" xmlns="http://www.w3.org/2000/svg">
<g filter="url(#filter0_d_155_381)">
<path d="M19 11.1871C19 15.7516 15.823 19 11.1311 19C6.63279 19 3 15.4258 3 11C3 6.57419 6.63279 3 11.1311 3C13.3213 3 15.1639 3.79032 16.5836 5.09355L14.3705 7.1871C11.4754 4.43871 6.0918 6.50323 6.0918 11C6.0918 13.7903 8.35738 16.0516 11.1311 16.0516C14.3508 16.0516 15.5574 13.7806 15.7475 12.6032H11.1311V9.85161H18.8721C18.9475 10.2613 19 10.6548 19 11.1871Z" fill="#D9D9D9"/>
<path d="M16.9272 5.45678L17.317 5.08805L16.9217 4.72521C15.4125 3.33981 13.4502 2.5 11.1311 2.5C6.36434 2.5 2.5 6.29042 2.5 11C2.5 15.7096 6.36434 19.5 11.1311 19.5C13.5957 19.5 15.6948 18.6446 17.1788 17.1585C18.6624 15.6729 19.5 13.5881 19.5 11.1871C19.5 10.6165 19.4431 10.1915 19.3639 9.7611L19.2885 9.35161H18.8721H11.1311H10.6311V9.85161V12.6032V13.1032H11.1311H15.0916C14.6857 14.1502 13.5535 15.5516 11.1311 15.5516C8.63403 15.5516 6.5918 13.5147 6.5918 11C6.5918 6.94148 11.4504 5.10439 14.0262 7.54972L14.3699 7.87594L14.7141 7.55033L16.9272 5.45678Z" stroke="#333030" stroke-opacity="0.5"/>
</g>
<defs>
<filter id="filter0_d_155_381" x="0" y="0" width="26" height="26" filterUnits="userSpaceOnUse" color-interpolation-filters="sRGB">
<feFlood flood-opacity="0" result="BackgroundImageFix"/>
<feColorMatrix in="SourceAlpha" type="matrix" values="0 0 0 0 0 0 0 0 0 0 0 0 0 0 0 0 0 0 127 0" result="hardAlpha"/>
<feOffset dx="2" dy="2"/>
<feGaussianBlur stdDeviation="2"/>
<feColorMatrix type="matrix" values="0 0 0 0 0 0 0 0 0 0 0 0 0 0 0 0 0 0 0.25 0"/>
<feBlend mode="normal" in2="BackgroundImageFix" result="effect1_dropShadow_155_381"/>
<feBlend mode="normal" in="SourceGraphic" in2="effect1_dropShadow_155_381" result="shape"/>
</filter>
</defs>
</svg>
