<svg width="20" height="20" viewBox="0 0 20 20" fill="none" xmlns="http://www.w3.org/2000/svg">
<path d="M14.5833 2.5H4.16667C3.25 2.5 2.5 3.25 2.5 4.16667V8.925C2.5 12.1167 4.95833 14.9083 8.15 15C11.45 15.1 14.1667 12.45 14.1667 9.16667V8.33333H14.5833C16.1917 8.33333 17.5 7.025 17.5 5.41667C17.5 3.80833 16.1917 2.5 14.5833 2.5ZM12.5 4.16667V6.66667H4.16667V4.16667H12.5ZM12.5 8.33333V9.16667C12.5 11.4667 10.6333 13.3333 8.33333 13.3333C6.03333 13.3333 4.16667 11.4667 4.16667 9.16667V8.33333H12.5ZM14.5833 6.66667H14.1667V4.16667H14.5833C15.275 4.16667 15.8333 4.725 15.8333 5.41667C15.8333 6.10833 15.275 6.66667 14.5833 6.66667ZM2.5 15.8333H15.8333V17.5H2.5V15.8333Z" fill="#D9D9D9"/>
</svg>
