<svg width="24" height="28" viewBox="0 0 24 28" fill="none" xmlns="http://www.w3.org/2000/svg">
<path d="M5.95 11.9029C6.28702 11.9029 6.61024 11.769 6.84856 11.5307C7.08687 11.2924 7.22075 10.9692 7.22075 10.6322C7.22075 10.2952 7.08687 9.97193 6.84856 9.73362C6.61024 9.49531 6.28702 9.36143 5.95 9.36143C5.61298 9.36143 5.28976 9.49531 5.05144 9.73362C4.81313 9.97193 4.67925 10.2952 4.67925 10.6322C4.67925 10.9692 4.81313 11.2924 5.05144 11.5307C5.28976 11.769 5.61298 11.9029 5.95 11.9029ZM12.2791 14.033C12.2791 14.3701 12.1452 14.6933 11.9069 14.9316C11.6686 15.1699 11.3454 15.3038 11.0084 15.3038C10.6713 15.3038 10.3481 15.1699 10.1098 14.9316C9.87148 14.6933 9.7376 14.3701 9.7376 14.033C9.7376 13.696 9.87148 13.3728 10.1098 13.1345C10.3481 12.8962 10.6713 12.7623 11.0084 12.7623C11.3454 12.7623 11.6686 12.8962 11.9069 13.1345C12.1452 13.3728 12.2791 13.696 12.2791 14.033ZM5.9568 19.5631C6.12446 19.5631 6.29048 19.5301 6.44537 19.4659C6.60027 19.4018 6.74101 19.3077 6.85956 19.1892C6.97812 19.0706 7.07216 18.9299 7.13632 18.775C7.20048 18.6201 7.2335 18.4541 7.2335 18.2864C7.2335 18.1188 7.20048 17.9528 7.13632 17.7979C7.07216 17.643 6.97812 17.5022 6.85956 17.3837C6.74101 17.2651 6.60027 17.1711 6.44537 17.1069C6.29048 17.0428 6.12446 17.0097 5.9568 17.0097C5.6182 17.0097 5.29346 17.1442 5.05404 17.3837C4.81461 17.6231 4.6801 17.9478 4.6801 18.2864C4.6801 18.625 4.81461 18.9498 5.05404 19.1892C5.29346 19.4286 5.6182 19.5631 5.9568 19.5631ZM0 3.32473C0 1.46323 1.5215 -0.112671 3.451 0.00632864C11.0109 0.472129 17.6409 3.01533 22.8344 7.97423C24.3083 9.38013 24.0176 11.6768 22.4893 12.8498C20.1111 14.6858 17.7168 16.5009 15.3068 18.2949V21.2529C15.3068 22.4718 14.3633 23.8029 12.7568 23.8029C12.4491 23.8029 12.1652 23.7519 11.9102 23.6669V23.808C11.9102 25.0201 10.965 26.3427 9.3551 26.3427C8.0733 26.3427 7.2284 25.4995 6.9309 24.5577C5.9993 25.2547 4.981 26.0129 4.0715 26.6895C2.3885 27.9424 0 26.7405 0 24.6495V3.32473ZM11.9085 21.2529C11.9085 21.6932 12.24 22.1029 12.7568 22.1029C13.2753 22.1029 13.6068 21.6898 13.6068 21.2529V17.8631C13.6069 17.7292 13.6387 17.5971 13.6996 17.4777C13.7604 17.3584 13.8486 17.2551 13.957 17.1763C15.283 16.2141 17.5406 14.4988 19.5398 12.9705C14.9617 8.61343 8.5442 6.02773 1.7 5.97333V24.6478C1.70047 24.8051 1.74457 24.9592 1.82739 25.0929C1.9102 25.2266 2.0285 25.3347 2.1691 25.4052C2.30971 25.4757 2.46711 25.5057 2.6238 25.4921C2.78048 25.4784 2.93031 25.4216 3.0566 25.3278C4.3928 24.3316 5.9687 23.1586 7.1519 22.2712C7.27818 22.1765 7.42835 22.1188 7.58557 22.1047C7.74278 22.0905 7.90084 22.1204 8.04203 22.191C8.18322 22.2616 8.30196 22.3701 8.38495 22.5044C8.46794 22.6386 8.5119 22.7934 8.5119 22.9512V23.808C8.5119 24.2279 8.8349 24.6444 9.3551 24.6444C9.46648 24.6472 9.57728 24.6275 9.68094 24.5867C9.78459 24.5458 9.879 24.4846 9.95857 24.4066C10.0381 24.3286 10.1013 24.2354 10.1442 24.1326C10.1871 24.0298 10.209 23.9194 10.2085 23.808V21.2529C10.2085 21.0275 10.2981 20.8113 10.4575 20.6519C10.6169 20.4925 10.8331 20.4029 11.0585 20.4029C11.2839 20.4029 11.5001 20.4925 11.6595 20.6519C11.8189 20.8113 11.9085 21.0275 11.9085 21.2529ZM21.4523 11.5034C22.2428 10.8965 22.3023 9.81533 21.6597 9.20163C16.8028 4.56573 10.5757 2.14663 3.3473 1.70123C2.465 1.64683 1.7 2.37103 1.7 3.32473V4.27333C9.0559 4.32943 15.9834 7.14123 20.9049 11.9233L21.4523 11.5034Z" fill="#D9D9D9"/>
</svg>
